<svg width="21" height="21" viewBox="0 0 21 21" fill="none" xmlns="http://www.w3.org/2000/svg">
<path d="M20.6511 19.0123L15.5009 13.856C18.0904 10.4856 17.8314 5.61728 14.724 2.53498C13.0265 0.835391 10.8398 0 8.62439 0C6.40895 0 4.22228 0.835391 2.52474 2.53498C-0.841579 5.90535 -0.841579 11.3786 2.52474 14.749C4.22228 16.4486 6.40895 17.284 8.62439 17.284C10.4658 17.284 12.3072 16.7078 13.8321 15.5267L19.0111 20.6543C19.2412 20.8848 19.5289 21 19.8454 21C20.1332 21 20.4497 20.8848 20.6798 20.6543C21.1114 20.2222 21.1114 19.4732 20.6511 19.0123ZM8.65316 14.9506C6.95561 14.9506 5.40193 14.2881 4.19351 13.107C1.74789 10.6584 1.74789 6.65432 4.19351 4.17695C5.37316 2.99588 6.95561 2.33333 8.65316 2.33333C10.3507 2.33333 11.9044 2.99588 13.1128 4.17695C14.3212 5.35802 14.9542 6.94239 14.9542 8.64197C14.9542 10.3416 14.2925 11.8971 13.1128 13.107C11.9332 14.3169 10.3219 14.9506 8.65316 14.9506Z" fill="#3E4651"/>
</svg>
