<svg width="380" height="78" viewBox="0 0 380 78" fill="none" xmlns="http://www.w3.org/2000/svg">
<path d="M10.602 59.9596C10.602 60.7716 10.322 61.4482 9.762 61.9896C9.21133 62.5216 8.36667 62.7876 7.228 62.7876H5.352V66.8616H4.078V57.1036H7.228C8.32933 57.1036 9.16467 57.3696 9.734 57.9016C10.3127 58.4336 10.602 59.1196 10.602 59.9596ZM7.228 61.7376C7.93733 61.7376 8.46 61.5836 8.796 61.2756C9.132 60.9676 9.3 60.5289 9.3 59.9596C9.3 58.7556 8.60933 58.1536 7.228 58.1536H5.352V61.7376H7.228ZM13.4594 60.4356C13.6834 59.9969 14.0008 59.6562 14.4114 59.4136C14.8314 59.1709 15.3401 59.0496 15.9374 59.0496V60.3656H15.6014C14.1734 60.3656 13.4594 61.1402 13.4594 62.6896V66.8616H12.1854V59.1896H13.4594V60.4356ZM20.7541 66.9876C20.0354 66.9876 19.3821 66.8242 18.7941 66.4976C18.2154 66.1709 17.7581 65.7089 17.4221 65.1116C17.0954 64.5049 16.9321 63.8049 16.9321 63.0116C16.9321 62.2276 17.1001 61.5369 17.4361 60.9396C17.7814 60.3329 18.2481 59.8709 18.8361 59.5536C19.4241 59.2269 20.0821 59.0636 20.8101 59.0636C21.5381 59.0636 22.1961 59.2269 22.7841 59.5536C23.3721 59.8709 23.8341 60.3282 24.1701 60.9256C24.5154 61.5229 24.6881 62.2182 24.6881 63.0116C24.6881 63.8049 24.5107 64.5049 24.1561 65.1116C23.8107 65.7089 23.3394 66.1709 22.7421 66.4976C22.1447 66.8242 21.4821 66.9876 20.7541 66.9876ZM20.7541 65.8676C21.2114 65.8676 21.6407 65.7602 22.0421 65.5456C22.4434 65.3309 22.7654 65.0089 23.0081 64.5796C23.2601 64.1502 23.3861 63.6276 23.3861 63.0116C23.3861 62.3956 23.2647 61.8729 23.0221 61.4436C22.7794 61.0142 22.4621 60.6969 22.0701 60.4916C21.6781 60.2769 21.2534 60.1696 20.7961 60.1696C20.3294 60.1696 19.9001 60.2769 19.5081 60.4916C19.1254 60.6969 18.8174 61.0142 18.5841 61.4436C18.3507 61.8729 18.2341 62.3956 18.2341 63.0116C18.2341 63.6369 18.3461 64.1642 18.5701 64.5936C18.8034 65.0229 19.1114 65.3449 19.4941 65.5596C19.8767 65.7649 20.2967 65.8676 20.7541 65.8676ZM29.4852 60.2396H27.8752V66.8616H26.6012V60.2396H25.6072V59.1896H26.6012V58.6436C26.6012 57.7849 26.8205 57.1596 27.2592 56.7676C27.7072 56.3662 28.4212 56.1656 29.4012 56.1656V57.2296C28.8412 57.2296 28.4445 57.3416 28.2112 57.5656C27.9872 57.7802 27.8752 58.1396 27.8752 58.6436V59.1896H29.4852V60.2396ZM37.9706 62.7316C37.9706 62.9742 37.9566 63.2309 37.9286 63.5016H31.7966C31.8432 64.2576 32.0999 64.8502 32.5666 65.2796C33.0426 65.6996 33.6166 65.9096 34.2886 65.9096C34.8392 65.9096 35.2966 65.7836 35.6606 65.5316C36.0339 65.2702 36.2952 64.9249 36.4446 64.4956H37.8166C37.6112 65.2329 37.2006 65.8349 36.5846 66.3016C35.9686 66.7589 35.2032 66.9876 34.2886 66.9876C33.5606 66.9876 32.9072 66.8242 32.3286 66.4976C31.7592 66.1709 31.3112 65.7089 30.9846 65.1116C30.6579 64.5049 30.4946 63.8049 30.4946 63.0116C30.4946 62.2182 30.6532 61.5229 30.9706 60.9256C31.2879 60.3282 31.7312 59.8709 32.3006 59.5536C32.8792 59.2269 33.5419 59.0636 34.2886 59.0636C35.0166 59.0636 35.6606 59.2222 36.2206 59.5396C36.7806 59.8569 37.2099 60.2956 37.5086 60.8556C37.8166 61.4062 37.9706 62.0316 37.9706 62.7316ZM36.6546 62.4656C36.6546 61.9802 36.5472 61.5649 36.3326 61.2196C36.1179 60.8649 35.8239 60.5989 35.4506 60.4216C35.0866 60.2349 34.6806 60.1416 34.2326 60.1416C33.5886 60.1416 33.0379 60.3469 32.5806 60.7576C32.1326 61.1682 31.8759 61.7376 31.8106 62.4656H36.6546ZM42.3682 66.9876C41.7802 66.9876 41.2529 66.8896 40.7862 66.6936C40.3196 66.4882 39.9509 66.2082 39.6802 65.8536C39.4096 65.4896 39.2602 65.0742 39.2322 64.6076H40.5482C40.5856 64.9902 40.7629 65.3029 41.0802 65.5456C41.4069 65.7882 41.8316 65.9096 42.3542 65.9096C42.8396 65.9096 43.2222 65.8022 43.5022 65.5876C43.7822 65.3729 43.9222 65.1022 43.9222 64.7756C43.9222 64.4396 43.7729 64.1922 43.4742 64.0336C43.1756 63.8656 42.7136 63.7022 42.0882 63.5436C41.5189 63.3942 41.0522 63.2449 40.6882 63.0956C40.3336 62.9369 40.0256 62.7082 39.7642 62.4096C39.5122 62.1016 39.3862 61.7002 39.3862 61.2056C39.3862 60.8136 39.5029 60.4542 39.7362 60.1276C39.9696 59.8009 40.3009 59.5442 40.7302 59.3576C41.1596 59.1616 41.6496 59.0636 42.2002 59.0636C43.0496 59.0636 43.7356 59.2782 44.2582 59.7076C44.7809 60.1369 45.0609 60.7249 45.0982 61.4716H43.8242C43.7962 61.0702 43.6329 60.7482 43.3342 60.5056C43.0449 60.2629 42.6529 60.1416 42.1582 60.1416C41.7009 60.1416 41.3369 60.2396 41.0662 60.4356C40.7956 60.6316 40.6602 60.8882 40.6602 61.2056C40.6602 61.4576 40.7396 61.6676 40.8982 61.8356C41.0662 61.9942 41.2716 62.1249 41.5142 62.2276C41.7662 62.3209 42.1116 62.4282 42.5502 62.5496C43.1009 62.6989 43.5489 62.8482 43.8942 62.9976C44.2396 63.1376 44.5336 63.3522 44.7762 63.6416C45.0282 63.9309 45.1589 64.3089 45.1682 64.7756C45.1682 65.1956 45.0516 65.5736 44.8182 65.9096C44.5849 66.2456 44.2536 66.5116 43.8242 66.7076C43.4042 66.8942 42.9189 66.9876 42.3682 66.9876ZM53.5747 59.1896L48.9547 70.4736H47.6387L49.1507 66.7776L46.0567 59.1896H47.4707L49.8787 65.4056L52.2587 59.1896H53.5747ZM58.2013 66.9876C57.4827 66.9876 56.8293 66.8242 56.2413 66.4976C55.6627 66.1709 55.2053 65.7089 54.8693 65.1116C54.5427 64.5049 54.3793 63.8049 54.3793 63.0116C54.3793 62.2276 54.5473 61.5369 54.8833 60.9396C55.2287 60.3329 55.6953 59.8709 56.2833 59.5536C56.8713 59.2269 57.5293 59.0636 58.2573 59.0636C58.9853 59.0636 59.6433 59.2269 60.2313 59.5536C60.8193 59.8709 61.2813 60.3282 61.6173 60.9256C61.9627 61.5229 62.1353 62.2182 62.1353 63.0116C62.1353 63.8049 61.958 64.5049 61.6033 65.1116C61.258 65.7089 60.7867 66.1709 60.1893 66.4976C59.592 66.8242 58.9293 66.9876 58.2013 66.9876ZM58.2013 65.8676C58.6587 65.8676 59.088 65.7602 59.4893 65.5456C59.8907 65.3309 60.2127 65.0089 60.4553 64.5796C60.7073 64.1502 60.8333 63.6276 60.8333 63.0116C60.8333 62.3956 60.712 61.8729 60.4693 61.4436C60.2267 61.0142 59.9093 60.6969 59.5173 60.4916C59.1253 60.2769 58.7007 60.1696 58.2433 60.1696C57.7767 60.1696 57.3473 60.2769 56.9553 60.4916C56.5727 60.6969 56.2647 61.0142 56.0313 61.4436C55.798 61.8729 55.6813 62.3956 55.6813 63.0116C55.6813 63.6369 55.7933 64.1642 56.0173 64.5936C56.2507 65.0229 56.5587 65.3449 56.9413 65.5596C57.324 65.7649 57.744 65.8676 58.2013 65.8676ZM67.5484 59.0496C68.4818 59.0496 69.2378 59.3342 69.8164 59.9036C70.3951 60.4636 70.6844 61.2756 70.6844 62.3396V66.8616H69.4244V62.5216C69.4244 61.7562 69.2331 61.1729 68.8504 60.7716C68.4678 60.3609 67.9451 60.1556 67.2824 60.1556C66.6104 60.1556 66.0738 60.3656 65.6724 60.7856C65.2804 61.2056 65.0844 61.8169 65.0844 62.6196V66.8616H63.8104V59.1896H65.0844V60.2816C65.3364 59.8896 65.6771 59.5862 66.1064 59.3716C66.5451 59.1569 67.0258 59.0496 67.5484 59.0496ZM79.7655 62.7316C79.7655 62.9742 79.7515 63.2309 79.7235 63.5016H73.5915C73.6382 64.2576 73.8948 64.8502 74.3615 65.2796C74.8375 65.6996 75.4115 65.9096 76.0835 65.9096C76.6342 65.9096 77.0915 65.7836 77.4555 65.5316C77.8288 65.2702 78.0902 64.9249 78.2395 64.4956H79.6115C79.4062 65.2329 78.9955 65.8349 78.3795 66.3016C77.7635 66.7589 76.9982 66.9876 76.0835 66.9876C75.3555 66.9876 74.7022 66.8242 74.1235 66.4976C73.5542 66.1709 73.1062 65.7089 72.7795 65.1116C72.4528 64.5049 72.2895 63.8049 72.2895 63.0116C72.2895 62.2182 72.4482 61.5229 72.7655 60.9256C73.0828 60.3282 73.5262 59.8709 74.0955 59.5536C74.6742 59.2269 75.3368 59.0636 76.0835 59.0636C76.8115 59.0636 77.4555 59.2222 78.0155 59.5396C78.5755 59.8569 79.0048 60.2956 79.3035 60.8556C79.6115 61.4062 79.7655 62.0316 79.7655 62.7316ZM78.4495 62.4656C78.4495 61.9802 78.3422 61.5649 78.1275 61.2196C77.9128 60.8649 77.6188 60.5989 77.2455 60.4216C76.8815 60.2349 76.4755 60.1416 76.0275 60.1416C75.3835 60.1416 74.8328 60.3469 74.3755 60.7576C73.9275 61.1682 73.6708 61.7376 73.6055 62.4656H78.4495ZM82.7211 56.5016V66.8616H81.4471V56.5016H82.7211ZM96.1429 57.1036V66.8616H94.8689V62.4376H89.8989V66.8616H88.6249V57.1036H89.8989V61.3876H94.8689V57.1036H96.1429ZM98.9762 57.9436C98.7336 57.9436 98.5282 57.8596 98.3602 57.6916C98.1922 57.5236 98.1082 57.3182 98.1082 57.0756C98.1082 56.8329 98.1922 56.6276 98.3602 56.4596C98.5282 56.2916 98.7336 56.2076 98.9762 56.2076C99.2096 56.2076 99.4056 56.2916 99.5642 56.4596C99.7322 56.6276 99.8162 56.8329 99.8162 57.0756C99.8162 57.3182 99.7322 57.5236 99.5642 57.6916C99.4056 57.8596 99.2096 57.9436 98.9762 57.9436ZM99.5922 59.1896V66.8616H98.3182V59.1896H99.5922ZM102.716 65.8116H106.482V66.8616H101.26V65.8116L104.984 60.2256H101.288V59.1896H106.454V60.2256L102.716 65.8116ZM117.361 59.0496C117.958 59.0496 118.49 59.1756 118.957 59.4276C119.423 59.6702 119.792 60.0389 120.063 60.5336C120.333 61.0282 120.469 61.6302 120.469 62.3396V66.8616H119.209V62.5216C119.209 61.7562 119.017 61.1729 118.635 60.7716C118.261 60.3609 117.753 60.1556 117.109 60.1556C116.446 60.1556 115.919 60.3702 115.527 60.7996C115.135 61.2196 114.939 61.8309 114.939 62.6336V66.8616H113.679V62.5216C113.679 61.7562 113.487 61.1729 113.105 60.7716C112.731 60.3609 112.223 60.1556 111.579 60.1556C110.916 60.1556 110.389 60.3702 109.997 60.7996C109.605 61.2196 109.409 61.8309 109.409 62.6336V66.8616H108.135V59.1896H109.409V60.2956C109.661 59.8942 109.997 59.5862 110.417 59.3716C110.846 59.1569 111.317 59.0496 111.831 59.0496C112.475 59.0496 113.044 59.1942 113.539 59.4836C114.033 59.7729 114.402 60.1976 114.645 60.7576C114.859 60.2162 115.214 59.7962 115.709 59.4976C116.203 59.1989 116.754 59.0496 117.361 59.0496ZM129.558 62.7316C129.558 62.9742 129.544 63.2309 129.516 63.5016H123.384C123.431 64.2576 123.688 64.8502 124.154 65.2796C124.63 65.6996 125.204 65.9096 125.876 65.9096C126.427 65.9096 126.884 65.7836 127.248 65.5316C127.622 65.2702 127.883 64.9249 128.032 64.4956H129.404C129.199 65.2329 128.788 65.8349 128.172 66.3016C127.556 66.7589 126.791 66.9876 125.876 66.9876C125.148 66.9876 124.495 66.8242 123.916 66.4976C123.347 66.1709 122.899 65.7089 122.572 65.1116C122.246 64.5049 122.082 63.8049 122.082 63.0116C122.082 62.2182 122.241 61.5229 122.558 60.9256C122.876 60.3282 123.319 59.8709 123.888 59.5536C124.467 59.2269 125.13 59.0636 125.876 59.0636C126.604 59.0636 127.248 59.2222 127.808 59.5396C128.368 59.8569 128.798 60.2956 129.096 60.8556C129.404 61.4062 129.558 62.0316 129.558 62.7316ZM128.242 62.4656C128.242 61.9802 128.135 61.5649 127.92 61.2196C127.706 60.8649 127.412 60.5989 127.038 60.4216C126.674 60.2349 126.268 60.1416 125.82 60.1416C125.176 60.1416 124.626 60.3469 124.168 60.7576C123.72 61.1682 123.464 61.7376 123.398 62.4656H128.242ZM132.794 60.2396V64.7616C132.794 65.1349 132.873 65.4009 133.032 65.5596C133.191 65.7089 133.466 65.7836 133.858 65.7836H134.796V66.8616H133.648C132.939 66.8616 132.407 66.6982 132.052 66.3716C131.697 66.0449 131.52 65.5082 131.52 64.7616V60.2396H130.526V59.1896H131.52V57.2576H132.794V59.1896H134.796V60.2396H132.794ZM137.614 56.5016V66.8616H136.34V56.5016H137.614ZM146.785 62.7316C146.785 62.9742 146.771 63.2309 146.743 63.5016H140.611C140.658 64.2576 140.914 64.8502 141.381 65.2796C141.857 65.6996 142.431 65.9096 143.103 65.9096C143.654 65.9096 144.111 65.7836 144.475 65.5316C144.848 65.2702 145.11 64.9249 145.259 64.4956H146.631C146.426 65.2329 146.015 65.8349 145.399 66.3016C144.783 66.7589 144.018 66.9876 143.103 66.9876C142.375 66.9876 141.722 66.8242 141.143 66.4976C140.574 66.1709 140.126 65.7089 139.799 65.1116C139.472 64.5049 139.309 63.8049 139.309 63.0116C139.309 62.2182 139.468 61.5229 139.785 60.9256C140.102 60.3282 140.546 59.8709 141.115 59.5536C141.694 59.2269 142.356 59.0636 143.103 59.0636C143.831 59.0636 144.475 59.2222 145.035 59.5396C145.595 59.8569 146.024 60.2956 146.323 60.8556C146.631 61.4062 146.785 62.0316 146.785 62.7316ZM145.469 62.4656C145.469 61.9802 145.362 61.5649 145.147 61.2196C144.932 60.8649 144.638 60.5989 144.265 60.4216C143.901 60.2349 143.495 60.1416 143.047 60.1416C142.403 60.1416 141.852 60.3469 141.395 60.7576C140.947 61.1682 140.69 61.7376 140.625 62.4656H145.469ZM149.741 60.4356C149.965 59.9969 150.282 59.6562 150.693 59.4136C151.113 59.1709 151.621 59.0496 152.219 59.0496V60.3656H151.883C150.455 60.3656 149.741 61.1402 149.741 62.6896V66.8616H148.467V59.1896H149.741V60.4356Z" fill="#363B48"/>
<path d="M15.65 10.1C19.3167 10.1 22.5333 10.8167 25.3 12.25C28.1 13.6833 30.25 15.7333 31.75 18.4C33.2833 21.0333 34.05 24.1 34.05 27.6C34.05 31.1 33.2833 34.1667 31.75 36.8C30.25 39.4 28.1 41.4167 25.3 42.85C22.5333 44.2833 19.3167 45 15.65 45H3.45V10.1H15.65ZM15.4 39.05C19.0667 39.05 21.9 38.05 23.9 36.05C25.9 34.05 26.9 31.2333 26.9 27.6C26.9 23.9667 25.9 21.1333 23.9 19.1C21.9 17.0333 19.0667 16 15.4 16H10.45V39.05H15.4ZM46.2898 15.75V24.5H58.0398V30.05H46.2898V39.3H59.5398V45H39.2898V10.05H59.5398V15.75H46.2898ZM95.7512 45H88.7512L72.9012 21.05V45H65.9012V10.05H72.9012L88.7512 34.05V10.05H95.7512V45ZM109.669 10.1V45H102.669V10.1H109.669ZM106.169 6.75C105.235 6.75 104.452 6.43333 103.819 5.8C103.185 5.16666 102.869 4.38333 102.869 3.45C102.869 2.51667 103.185 1.73333 103.819 1.1C104.452 0.433331 105.235 0.0999969 106.169 0.0999969C107.102 0.0999969 107.885 0.433331 108.519 1.1C109.185 1.73333 109.519 2.51667 109.519 3.45C109.519 4.38333 109.185 5.16666 108.519 5.8C107.885 6.43333 107.102 6.75 106.169 6.75ZM123.735 39.1H139.435V45H115.635V39.6L131.235 16H115.635V10.1H139.435V15.5L123.735 39.1ZM185.057 10.1L173.257 32.85V45H166.257V32.85L154.407 10.1H162.307L169.807 26.05L177.257 10.1H185.057ZM205.295 45.35C202.028 45.35 199.028 44.5833 196.295 43.05C193.561 41.5167 191.395 39.4 189.795 36.7C188.195 33.9667 187.395 30.8833 187.395 27.45C187.395 24.05 188.195 21 189.795 18.3C191.395 15.5667 193.561 13.4333 196.295 11.9C199.028 10.3667 202.028 9.6 205.295 9.6C208.595 9.6 211.595 10.3667 214.295 11.9C217.028 13.4333 219.178 15.5667 220.745 18.3C222.345 21 223.145 24.05 223.145 27.45C223.145 30.8833 222.345 33.9667 220.745 36.7C219.178 39.4 217.028 41.5167 214.295 43.05C211.561 44.5833 208.561 45.35 205.295 45.35ZM205.295 39.1C207.395 39.1 209.245 38.6333 210.845 37.7C212.445 36.7333 213.695 35.3667 214.595 33.6C215.495 31.8333 215.945 29.7833 215.945 27.45C215.945 25.1167 215.495 23.0833 214.595 21.35C213.695 19.5833 212.445 18.2333 210.845 17.3C209.245 16.3667 207.395 15.9 205.295 15.9C203.195 15.9 201.328 16.3667 199.695 17.3C198.095 18.2333 196.845 19.5833 195.945 21.35C195.045 23.0833 194.595 25.1167 194.595 27.45C194.595 29.7833 195.045 31.8333 195.945 33.6C196.845 35.3667 198.095 36.7333 199.695 37.7C201.328 38.6333 203.195 39.1 205.295 39.1ZM200.645 6.75C199.711 6.75 198.928 6.43333 198.295 5.8C197.661 5.16666 197.345 4.38333 197.345 3.45C197.345 2.51667 197.661 1.73333 198.295 1.1C198.928 0.433331 199.711 0.0999969 200.645 0.0999969C201.578 0.0999969 202.361 0.433331 202.995 1.1C203.661 1.73333 203.995 2.51667 203.995 3.45C203.995 4.38333 203.661 5.16666 202.995 5.8C202.361 6.43333 201.578 6.75 200.645 6.75ZM209.895 6.75C208.961 6.75 208.178 6.43333 207.545 5.8C206.911 5.16666 206.595 4.38333 206.595 3.45C206.595 2.51667 206.911 1.73333 207.545 1.1C208.178 0.433331 208.961 0.0999969 209.895 0.0999969C210.828 0.0999969 211.611 0.433331 212.245 1.1C212.911 1.73333 213.245 2.51667 213.245 3.45C213.245 4.38333 212.911 5.16666 212.245 5.8C211.611 6.43333 210.828 6.75 209.895 6.75ZM258.202 45H251.202L235.352 21.05V45H228.352V10.05H235.352L251.202 34.05V10.05H258.202V45ZM272.12 15.75V24.5H283.87V30.05H272.12V39.3H285.37V45H265.12V10.05H285.37V15.75H272.12ZM315.481 10.1V15.75H306.181V45H299.181V15.75H289.881V10.1H315.481ZM327.589 10.1V45H320.589V10.1H327.589ZM324.089 6.75C323.155 6.75 322.372 6.43333 321.739 5.8C321.105 5.16666 320.789 4.38333 320.789 3.45C320.789 2.51667 321.105 1.73333 321.739 1.1C322.372 0.433331 323.155 0.0999969 324.089 0.0999969C325.022 0.0999969 325.805 0.433331 326.439 1.1C327.105 1.73333 327.439 2.51667 327.439 3.45C327.439 4.38333 327.105 5.16666 326.439 5.8C325.805 6.43333 325.022 6.75 324.089 6.75ZM372.555 10.1V45H365.555V22.3L356.205 45H350.905L341.505 22.3V45H334.505V10.1H342.455L353.555 36.05L364.655 10.1H372.555Z" fill="#00589B"/>
</svg>
