<svg width="77" height="100" viewBox="0 0 77 100" fill="none" xmlns="http://www.w3.org/2000/svg">
<path d="M64.107 65.52L64.077 59.403L64.314 59.091C65.684 57.271 66.944 55.384 68.06 53.492C71.264 48.07 73.592 42.214 74.976 36.084L75.328 34.527L76.224 31.364C77.778 21.502 76.841 11.291 73.515 1.842C73.515 1.842 73.154 0.82 72.866 0C72.011 0.143 70.943 0.319 70.943 0.319C61.06 1.97 51.667 6.078 43.78 12.203L41.441 14.512L40.248 15.571C35.55 19.745 31.542 24.61 28.34 30.033C27.163 32.024 26.072 34.148 25.103 36.348L24.943 36.708L19.939 39.435C13.826 42.763 8.785 47.691 5.304 53.583C3.443 56.734 2.026 60.16 1.131 63.768C0.396 66.736 0.017 69.793 0.00699997 72.861C0.00699997 72.861 0.003 73.872 0 74.683C1.101 74.956 3.66 75.589 5.042 75.931C5.328 74.6 5.815 72.336 5.815 72.336C6.265 70.52 6.971 68.811 7.894 67.247C10.212 63.321 13.911 60.31 18.428 58.819L19.973 58.308L19.953 59.937L19.945 61.405L19.967 63.212L19.214 63.502C16.103 64.701 13.428 66.742 11.481 69.407C11.481 69.407 10.641 70.555 9.967 71.473L40.113 89.278C40.592 88.247 41.193 86.96 41.193 86.96C42.515 84.113 43.041 80.962 42.704 77.846L42.624 77.069L44.635 75.993L46.102 75.171L47.524 74.454L47.832 76.024C48.759 80.743 47.919 85.489 45.561 89.481C44.62 91.074 43.439 92.546 42.032 93.848C42.032 93.848 40.377 95.286 39.385 96.148C40.071 96.929 40.927 97.903 40.927 97.903C40.927 97.903 42.151 99.23 42.865 100.001C43.573 99.606 44.459 99.115 44.459 99.115C47.13 97.632 49.627 95.825 51.878 93.742C54.605 91.219 56.92 88.325 58.781 85.174C62.262 79.278 64.143 72.484 64.107 65.52ZM4.942 65.402C4.938 65.415 4.931 65.427 4.925 65.437C4.921 65.445 4.913 65.454 4.907 65.462C4.905 65.465 4.905 65.465 4.905 65.465C4.588 66.003 4.333 66.589 4.064 67.16C4.207 66.287 4.333 65.407 4.545 64.547C5.357 61.286 6.63 58.193 8.307 55.344C8.747 54.595 9.224 53.866 9.722 53.157C9.757 53.109 9.791 53.062 9.826 53.014C11.365 50.854 13.158 48.88 15.157 47.119C16.411 46.017 21.425 42.704 22.828 41.777C22.021 44.573 20.087 53.437 19.994 54.407C14.927 56.223 7.594 60.916 4.942 65.402ZM50.159 12.066C56.343 8.103 63.259 5.336 70.51 3.988C72.607 10.308 73.544 16.953 73.356 23.575C73.303 25.386 73.178 27.198 72.955 28.999C70.222 27.384 50.17 15.539 47.431 13.923C48.321 13.275 49.233 12.658 50.159 12.066ZM38.51 84.204C36.395 82.953 17.302 71.678 15.185 70.427C15.351 70.246 15.521 70.07 15.696 69.896C15.737 69.856 15.778 69.814 15.817 69.775C16.025 69.576 16.235 69.382 16.455 69.192C17.674 68.137 19.068 67.296 20.609 66.717L39.144 77.666C39.395 79.379 39.317 81.089 38.934 82.742C38.82 83.234 38.679 83.723 38.51 84.204ZM40.452 74.771C39.339 74.114 24.257 65.206 23.144 64.548C22.899 53.552 26.18 40.552 31.356 31.773C32.049 30.601 32.785 29.46 33.56 28.345C34.229 27.378 34.933 26.441 35.66 25.522C35.858 25.273 36.052 25.019 36.253 24.768C36.302 24.708 36.357 24.648 36.409 24.587C38.176 22.447 42.422 17.985 45.138 16.23L72.301 32.273C71.664 34.974 70.674 40.298 68.934 43.798C68.898 43.868 68.876 43.948 68.851 44.022C68.73 44.321 68.601 44.613 68.478 44.906C68.022 45.986 67.541 47.055 67.019 48.108C66.419 49.315 65.779 50.504 65.091 51.673C59.898 60.457 51.296 70.326 40.452 74.771ZM54.624 85.206C54.509 85.373 54.393 85.541 54.273 85.706C53.951 86.162 53.619 86.606 53.274 87.044C53.045 87.337 52.809 87.626 52.57 87.911C52.255 88.289 51.936 88.664 51.603 89.026C51.456 89.195 51.302 89.36 51.15 89.521C50.631 90.071 50.1 90.609 49.543 91.124C48.894 91.728 48.185 92.259 47.49 92.811C47.86 92.295 48.247 91.791 48.565 91.251C48.575 91.238 48.581 91.223 48.589 91.207C48.592 91.201 48.598 91.194 48.6 91.189C48.627 91.144 48.651 91.092 48.678 91.044C48.926 90.616 49.156 90.183 49.371 89.738C49.495 89.49 49.607 89.238 49.721 88.983C49.825 88.75 49.923 88.517 50.017 88.282C50.152 87.956 50.28 87.626 50.396 87.294C50.412 87.258 50.42 87.222 50.432 87.186C51.641 83.682 51.302 77.171 50.691 73.363C53.959 71.122 58.337 66.854 61.138 64.058C61.047 65.194 60.191 70.718 59.999 71.834C59.475 74.822 58.58 77.718 57.32 80.45C57.236 80.634 57.149 80.814 57.062 80.994C56.918 81.291 56.773 81.585 56.623 81.877C56.392 82.315 56.156 82.748 55.906 83.176C55.872 83.234 55.842 83.295 55.808 83.355C55.434 83.983 55.034 84.598 54.624 85.206ZM56.965 11.673C55.92 11.056 54.565 11.404 53.945 12.453C53.327 13.5 53.676 14.853 54.723 15.473C55.77 16.093 57.124 15.744 57.744 14.697C58.362 13.647 58.013 12.291 56.965 11.673ZM55.312 14.472C54.817 14.18 54.65 13.538 54.943 13.042C55.238 12.544 55.879 12.381 56.374 12.674C56.871 12.967 57.04 13.608 56.746 14.106C56.451 14.603 55.81 14.766 55.312 14.472ZM70.171 19.472C69.121 18.853 67.768 19.201 67.149 20.25C66.53 21.297 66.878 22.65 67.928 23.271C68.975 23.889 70.33 23.542 70.948 22.495C71.567 21.447 71.218 20.092 70.171 19.472ZM68.516 22.273C68.02 21.978 67.855 21.337 68.148 20.841C68.441 20.342 69.082 20.179 69.579 20.474C70.076 20.765 70.242 21.406 69.949 21.904C69.654 22.4 69.013 22.566 68.516 22.273ZM63.822 15.722C62.775 15.103 61.419 15.452 60.799 16.5C60.181 17.547 60.53 18.9 61.578 19.521C62.624 20.138 63.98 19.792 64.599 18.744C65.218 17.696 64.869 16.341 63.822 15.722ZM62.168 18.522C61.672 18.229 61.506 17.586 61.799 17.091C62.094 16.593 62.735 16.429 63.23 16.723C63.726 17.016 63.895 17.657 63.599 18.155C63.305 18.652 62.663 18.814 62.168 18.522ZM54.152 31.684C50.302 29.41 45.319 30.692 43.046 34.54C40.774 38.388 42.055 43.373 45.905 45.645C49.755 47.919 54.738 46.635 57.011 42.788C59.284 38.941 58.001 33.958 54.152 31.684ZM46.496 44.646C43.198 42.697 42.099 38.429 44.046 35.131C45.995 31.832 50.264 30.735 53.562 32.684C56.861 34.631 57.959 38.899 56.011 42.199C54.063 45.497 49.796 46.595 46.496 44.646Z" fill="#363B48"/>
</svg>
